<svg viewBox="0 0 212 180" xmlns="http://www.w3.org/2000/svg" xmlns:xlink="http://www.w3.org/1999/xlink"><svg width="36" height="36" viewBox="-4 -4 36 36" id="bug_outline_28" xmlns="http://www.w3.org/2000/svg"><g fill="none" fill-rule="evenodd"><path d="M0 0h28v28H0z"></path><path d="M20.301 3.043a1 1 0 01-.05 1.413l-1.327 1.238a8.04 8.04 0 012.008 2.31L21 8h3a1 1 0 01.117 1.993L24 10h-2.252c.164.639.252 1.31.252 2v2h4a1 1 0 01.993.883L27 15a1 1 0 01-.883.993L26 16h-4v2c0 .69-.088 1.361-.252 2H24a1 1 0 01.117 1.993L24 22h-3l-.07-.002A7.995 7.995 0 0114 26a7.997 7.997 0 01-6.932-4.004L7 22H4a1 1 0 01-.117-1.993L4 20h2.252A8.014 8.014 0 016 18v-2H2a1 1 0 01-.993-.883L1 15a1 1 0 01.883-.993L2 14h4v-2c0-.69.088-1.361.252-2H4a1 1 0 01-.117-1.993L4 8h3l.069.002a8.035 8.035 0 012.016-2.315l-1.32-1.231a1 1 0 011.267-1.543l.097.08 1.755 1.636A7.976 7.976 0 0114 4c1.11 0 2.167.226 3.128.635l1.76-1.642a1 1 0 011.413.05zM14 6a6 6 0 00-6 6v6a6 6 0 1012 0v-6a6 6 0 00-6-6zm1 11a1 1 0 010 2h-2a1 1 0 010-2h2zm-2-6h2a1 1 0 01.117 1.993L15 13h-2a1 1 0 01-.117-1.993L13 11h2-2z" fill="#3f8ae0" fill-rule="nonzero"></path></g></svg><svg width="36" height="36" viewBox="-4 -4 36 36" id="camera_outline_28" x="36" xmlns="http://www.w3.org/2000/svg"><g fill="none" fill-rule="evenodd"><path d="M0 0h28v28H0z"></path><path d="M16.608 3c1.033 0 1.764.336 2.403 1.09l.805 1c.178.222.688.422 1.184.422h.5c2.644 0 4.5 2.052 4.5 5.02v7.448c0 2.657-2.547 5.02-5.5 5.02h-13C4.547 23 2 20.637 2 17.98v-7.448c0-2.968 1.856-5.02 4.5-5.02H7c.496 0 1.006-.2 1.184-.421.203-.252.786-.978.805-1C9.628 3.335 10.36 3 11.392 3h5.216zm0 2h-5.216c-.447 0-.62.08-.876.383l-.775.963C9.146 7.084 8.057 7.512 7 7.512h-.5c-1.492 0-2.5 1.114-2.5 3.02v7.448C4 19.498 5.62 21 7.5 21h13c1.88 0 3.5-1.502 3.5-3.02v-7.448c0-1.906-1.008-3.02-2.5-3.02H21c-1.057 0-2.146-.428-2.741-1.166l-.775-.963c-.257-.304-.429-.383-.876-.383zM14 8.75a5 5 0 110 10 5 5 0 010-10zm0 2a3 3 0 100 6 3 3 0 000-6z" fill="#3f8ae0" fill-rule="nonzero"></path></g></svg><svg width="36" height="36" viewBox="-4 -4 36 36" id="chevron_down_outline_28_dropdown" y="36" xmlns="http://www.w3.org/2000/svg"><g fill="none" fill-rule="evenodd"><path d="M0 0h28v28H0z"></path><path fill="#4986cc" fill-rule="nonzero" d="M7.65 11.24a1 1 0 10-1.3 1.52l7 6a1 1 0 001.3 0l7-6a1 1 0 10-1.3-1.52L14 16.684 7.65 11.24z"></path></g></svg><svg height="36" width="36" viewBox="-4 -4 36 36" id="desktop_outline_28" x="36" y="36" xmlns="http://www.w3.org/2000/svg"><g fill="none" fill-rule="evenodd"><path d="M0 0h28v28H0z"></path><path d="M6.564 6h14.872c.892 0 1.215.093 1.54.267.327.174.583.43.757.756s.267.65.267 1.54V21H4V8.564c0-.892.093-1.215.267-1.54.174-.327.43-.583.756-.757S5.673 6 6.563 6z" stroke="#3f8ae0" stroke-width="2"></path><path d="M1 20h26a1 1 0 011 1c0 .597-.382 1.127-.949 1.316l-.7.233c-.504.169-.76.25-1.006.31a4.16 4.16 0 01-.716.117c-.254.02-.522.024-1.054.024H4.425c-.532 0-.8-.004-1.054-.024a4.16 4.16 0 01-.716-.116 13.645 13.645 0 01-1.007-.31l-.7-.234A1.387 1.387 0 010 21a1 1 0 011-1z" fill="#3f8ae0"></path></g></svg><svg width="36" height="36" viewBox="-4 -4 36 36" id="document_outline_28" x="72" xmlns="http://www.w3.org/2000/svg"><g fill="none" fill-rule="evenodd"><path d="M0 0h28v28H0z"></path><path d="M15.205 2.122c.406.093.772.245 1.124.466.356.222.63.456 1.192 1.02l4.872 4.87c.563.564.797.837 1.02 1.193a3.6 3.6 0 01.465 1.124c.094.409.122.767.122 1.564v6.872c0 1.98-.185 2.94-.72 3.939a5.089 5.089 0 01-2.11 2.11c-.999.535-1.959.72-3.939.72H10.77c-1.98 0-2.94-.185-3.939-.72a5.089 5.089 0 01-2.11-2.11c-.537-1-.721-1.96-.721-3.94V8.066c0-1.285.232-2.324.72-3.236a5.089 5.089 0 012.11-2.11C7.742 2.231 8.781 2 10.066 2h3.575c.797 0 1.155.028 1.564.122zm-1.379 1.879L10.066 4c-.972 0-1.688.16-2.292.483a3.09 3.09 0 00-1.291 1.29C6.16 6.379 6 7.095 6 8.067v11.165c0 1.678.125 2.327.483 2.995.299.56.732.992 1.29 1.291.67.358 1.318.483 2.996.483h6.462c1.678 0 2.327-.125 2.995-.483a3.09 3.09 0 001.291-1.29c.358-.67.483-1.318.483-2.996V12.36c0-.137 0-.256-.002-.36H16.5A2.5 2.5 0 0114 9.5l.001-5.498-.175-.001zm2.281 1.02L16 4.915V9.5a.5.5 0 00.41.492l.09.008 4.587.002-.108-.11-4.872-4.87z" fill="#3f8ae0" fill-rule="nonzero"></path></g></svg><svg height="36" width="36" viewBox="-4 -4 36 36" id="favorite_outline_28" x="72" y="36" xmlns="http://www.w3.org/2000/svg"><g fill="none" fill-rule="evenodd"><path d="M0 0h28v28H0z"></path><path d="M14 19.178l5.69 3.476a.205.205 0 00.306-.223l-1.547-6.485 5.064-4.338a.205.205 0 00-.117-.36l-6.646-.533-2.56-6.156a.205.205 0 00-.38 0l-2.56 6.156-6.646.533a.205.205 0 00-.117.36l5.064 4.338-1.547 6.485a.205.205 0 00.306.223zm0 2.344L9.352 24.36a2.205 2.205 0 01-3.294-2.393l1.264-5.297-4.136-3.543a2.205 2.205 0 011.258-3.873l5.429-.435 2.091-5.028a2.205 2.205 0 014.072 0l2.091 5.028 5.429.435a2.205 2.205 0 011.258 3.873l-4.136 3.543 1.264 5.297a2.205 2.205 0 01-3.294 2.393z" fill="#3f8ae0" fill-rule="nonzero"></path></g></svg><svg height="30" width="30" viewBox="-4 -4 30 30" id="feed" x="180" y="32" xmlns="http://www.w3.org/2000/svg"><g fill="none" fill-rule="evenodd"><path d="M-3-3h28v28H-3z" opacity=".04"></path><path d="M19.5 6v-.654c0-1.068-.073-1.449-.283-1.84a1.726 1.726 0 00-.723-.723c-.391-.21-.772-.283-1.84-.283H5.346c-1.068 0-1.449.073-1.84.283-.314.168-.555.409-.723.723-.21.391-.283.772-.283 1.84V6zm0 2h-17v8.654c0 1.068.073 1.449.283 1.84.168.314.409.555.723.723.391.21.772.283 1.84.283h11.308c1.068 0 1.449-.073 1.84-.283.314-.168.555-.409.723-.723.21-.391.283-.772.283-1.84zM5.346.5h11.308c1.37 0 2.063.134 2.783.519.663.355 1.19.881 1.544 1.544.385.72.519 1.413.519 2.783v11.308c0 1.37-.134 2.063-.519 2.783a3.726 3.726 0 01-1.544 1.544c-.72.385-1.413.519-2.783.519H5.346c-1.37 0-2.063-.134-2.783-.519a3.726 3.726 0 01-1.544-1.544C.634 18.717.5 18.024.5 16.654V5.346c0-1.37.134-2.063.519-2.783A3.726 3.726 0 012.563 1.02C3.283.634 3.976.5 5.346.5z" fill="#3f8ae0" fill-rule="nonzero"></path></g></svg><svg width="36" height="36" viewBox="-4 -4 36 36" id="game_outline_28" y="72" xmlns="http://www.w3.org/2000/svg"><g fill="none" fill-rule="evenodd"><path opacity=".4" d="M0 0h28v28H0z"></path><path d="M16.731 17.215H10.27c-1.542 0-4.124 5-5.655 5-2.056 0-2.57-1-2.57-4S2.558 7.104 8.213 7.104h10.574c5.655 0 6.169 8.11 6.169 11.11s-.514 4-2.57 4c-2.057 0-4.113-5-5.655-5z" stroke="#3f8ae0" stroke-width="2"></path><path d="M8.566 9.815a.51.51 0 01.51.51v1.267h1.26a.51.51 0 01.51.511v.757a.51.51 0 01-.51.51h-1.26v1.268a.51.51 0 01-.51.51h-.748a.51.51 0 01-.51-.51V13.37h-1.26a.51.51 0 01-.51-.51v-.757a.51.51 0 01.51-.51l1.26-.001v-1.267a.51.51 0 01.51-.51h.748zm10.616 3.555a.51.51 0 01.51.51v.758a.51.51 0 01-.51.51h-.748a.51.51 0 01-.51-.51v-.758a.51.51 0 01.51-.51h.748zm-1.77-1.777a.51.51 0 01.511.51v.757a.51.51 0 01-.51.51h-.749a.51.51 0 01-.51-.51v-.757a.51.51 0 01.51-.51h.749zm3.54 0a.51.51 0 01.51.51v.757a.51.51 0 01-.51.51h-.75a.51.51 0 01-.51-.51v-.757a.51.51 0 01.51-.51h.75zm-1.77-1.778a.51.51 0 01.51.51v.757a.51.51 0 01-.51.51h-.748a.51.51 0 01-.51-.51v-.757a.51.51 0 01.51-.51h.748z" fill="#3f8ae0"></path></g></svg><svg viewBox="-4 -4 32 32" width="32" height="32" id="gift_24" x="108" y="144" xmlns="http://www.w3.org/2000/svg"><g fill="none" fill-rule="evenodd"><path d="M0 0h24v24H0z"></path><path d="M21 10v2c0 .6-.4 1-1 1h-1v6.5c0 1.4-1.1 2.5-2.5 2.5h-9A2.5 2.5 0 015 19.5V13h1-2a1 1 0 01-1-1v-2c0-1.1.9-2 2-2h14a2 2 0 012 2zm-8 3h6v2h-6v7h-2v-7H5v-2h6V8h2v5zm-1-5C9 8 5.5 7 5.5 5.5s2-3 3.5-2.5c1 .3 2 2 3 5 1-3 2-4.7 3-5 1.5-.5 3.5 1 3.5 2.5S15 8 12 8z" fill="#99a2ad"></path></g></svg><svg width="36" height="36" viewBox="-4 -4 36 36" id="gift_outline_28" x="36" y="72" xmlns="http://www.w3.org/2000/svg"><g fill="none" fill-rule="evenodd"><path d="M0 0h28v28H0z"></path><path d="M12.436 3.693C13.064 4.12 13.59 4.71 14 5.448c.41-.738.936-1.328 1.565-1.755 1.49-1.01 3.376-.902 4.51.233 1.135 1.134 1.242 3.02.233 4.51a4.577 4.577 0 01-.453.565L21.43 9c1.007 0 1.547.14 2.036.4.49.262.873.646 1.134 1.135.262.489.401 1.029.401 2.036v.858c0 1.007-.14 1.547-.4 2.036a2.726 2.726 0 01-1.135 1.134 2.986 2.986 0 01-.463.202L23 19.872c0 1.783-.186 2.43-.534 3.082a3.635 3.635 0 01-1.512 1.512c-.652.348-1.299.534-3.082.534h-7.744c-1.783 0-2.43-.186-3.082-.534a3.635 3.635 0 01-1.512-1.512C5.186 22.302 5 21.655 5 19.872v-3.071a2.986 2.986 0 01-.465-.202A2.726 2.726 0 013.4 15.465c-.261-.489-.4-1.029-.4-2.035v-.858c0-1.007.14-1.547.4-2.036A2.726 2.726 0 014.536 9.4C5.024 9.139 5.564 9 6.57 9h1.575a4.577 4.577 0 01-.453-.564c-1.01-1.49-.902-3.376.233-4.51 1.134-1.135 3.02-1.242 4.51-.233zM13 17H7v2.872c0 1.324.078 1.727.298 2.138.162.304.388.53.692.692.411.22.814.298 2.138.298H13v-6zm8 0h-6v6h2.872c1.324 0 1.727-.078 2.138-.298.304-.162.53-.388.692-.692.22-.411.298-.814.298-2.138V17zm-8-6H6.57c-.637 0-.88.05-1.092.164a.727.727 0 00-.314.314C5.051 11.69 5 11.933 5 12.57v.858c0 .638.05.881.164 1.093.075.14.174.239.314.314.212.113.455.164 1.093.164H13v-4zm8.43 0H15v4h6.43c.637 0 .88-.05 1.092-.164a.727.727 0 00.314-.314c.113-.212.164-.455.164-1.093v-.858c0-.638-.05-.881-.164-1.093a.727.727 0 00-.314-.314c-.212-.113-.455-.164-1.093-.164zM15 9c3.65-.35 4.695-2.705 3.7-3.7-.995-.995-3.35.05-3.7 3.7zM9.301 5.3c-.995.995.05 3.35 3.7 3.7-.35-3.65-2.705-4.695-3.7-3.7z" fill="#3f8ae0" fill-rule="nonzero"></path></g></svg><svg height="36" width="36" viewBox="-4 -4 36 36" id="help_outline_28" x="72" y="72" xmlns="http://www.w3.org/2000/svg"><g fill="none" fill-rule="evenodd"><path d="M0 0h28v28H0z"></path><path d="M14 1.167c7.088 0 12.833 5.745 12.833 12.833S21.088 26.833 14 26.833 1.167 21.088 1.167 14 6.912 1.167 14 1.167zm0 2.1C8.072 3.267 3.267 8.072 3.267 14S8.072 24.733 14 24.733 24.733 19.928 24.733 14 19.928 3.267 14 3.267zm-.056 16.07c.612 0 1.108.496 1.108 1.107v.382c0 .611-.496 1.107-1.108 1.107h-.35a1.108 1.108 0 01-1.107-1.107v-.382c0-.611.496-1.107 1.107-1.107zm-.249-12.57c2.296 0 4.155 1.901 4.155 4.249a3.42 3.42 0 01-.966 2.39l-.935.977c-.556.577-.957 1.077-1.126 1.95-.015.08-.027.201-.034.362-.024.553-.48.99-1.034.99h-.01a1.04 1.04 0 01-1.04-1.04v-.002c0-.302.01-.5.028-.593a4.335 4.335 0 011.14-2.198l1.287-1.339c.369-.375.613-.913.613-1.497 0-1.169-.935-2.125-2.078-2.125a2.07 2.07 0 00-1.74.967 4.45 4.45 0 00-.277.552 1.04 1.04 0 01-1.29.561l-.033-.011a1 1 0 01-.62-1.273l.019-.048c.075-.187.147-.352.217-.494.713-1.47 2.056-2.378 3.724-2.378z" fill="#3f8ae0" fill-rule="nonzero"></path></g></svg><svg height="36" width="36" viewBox="-4 -4 36 36" id="like_outline_28" x="108" xmlns="http://www.w3.org/2000/svg"><g fill="none" fill-rule="evenodd"><path d="M0 0h28v28H0z"></path><path d="M19.526 3.617a7.19 7.19 0 017.19 7.19c0 3.989-1.595 5.986-8.302 11.202l-3.053 2.375c-.8.623-1.921.623-2.722 0l-3.053-2.375c-6.707-5.216-8.303-7.213-8.303-11.202a7.19 7.19 0 017.19-7.19c2.081 0 3.932.954 5.527 2.794 1.595-1.84 3.446-2.794 5.526-2.794zm-11.052 2.1a5.09 5.09 0 00-5.09 5.09c0 3.115 1.273 4.708 7.49 9.544l3.054 2.375a.117.117 0 00.144 0l3.053-2.375c6.218-4.836 7.492-6.43 7.492-9.544a5.09 5.09 0 00-5.09-5.09c-1.71 0-3.25.964-4.663 3.008L14 9.973l-.864-1.248c-1.413-2.044-2.952-3.008-4.662-3.008z" fill="#3f8ae0" fill-rule="nonzero"></path></g></svg><svg height="36" width="36" viewBox="-4 -4 36 36" id="logo_vk_outline_28" x="108" y="36" xmlns="http://www.w3.org/2000/svg"><g fill="none" fill-rule="evenodd"><path d="M0 0h28v28H0z"></path><path d="M11.974 3h4.052c3.12 0 4.252.325 5.393.935a6.36 6.36 0 012.646 2.646c.61 1.14.935 2.272.935 5.393v4.052c0 3.12-.325 4.252-.935 5.393a6.36 6.36 0 01-2.646 2.646c-1.14.61-2.272.935-5.393.935h-4.052c-3.12 0-4.252-.325-5.393-.935a6.36 6.36 0 01-2.646-2.646C3.325 20.279 3 19.147 3 16.026v-4.052c0-3.12.325-4.252.935-5.393a6.36 6.36 0 012.646-2.646C7.721 3.325 8.853 3 11.974 3z" stroke="#3f8ae0" stroke-width="2"></path><path d="M6.767 6.825h14.667v14.667H6.767z" opacity=".4"></path><path d="M19.882 10.935c.056-.284-.067-.443-.358-.443h-1.467c-.336 0-.46.148-.56.364 0 0-.778 1.8-1.743 2.883-.31.35-.364.455-.535.455-.138 0-.202-.117-.202-.433v-2.764c0-.387-.044-.505-.358-.505h-2.335c-.18 0-.3.1-.3.244 0 .364.548.446.548 1.433v2.037c0 .41-.022.569-.213.569-.503 0-1.812-1.753-2.484-3.756-.134-.41-.28-.527-.661-.527H7.75a.359.359 0 00-.372.368c0 .398.459 2.241 2.262 4.71 1.21 1.662 2.902 2.56 4.336 2.56.873 0 1.041-.154 1.041-.53v-1.273c0-.319.123-.456.303-.456.201 0 .499.073 1.33.906.985.955 1.053 1.354 1.59 1.354h1.646c.168 0 .325-.08.325-.365 0-.375-.481-1.046-1.22-1.843-.303-.41-.796-.853-.952-1.058-.224-.239-.157-.375 0-.626 0 0 1.675-2.507 1.843-3.304z" fill="#3f8ae0"></path></g></svg><svg width="36" height="36" viewBox="-4 -4 36 36" id="logout_outline_28" x="108" y="72" xmlns="http://www.w3.org/2000/svg"><g fill="none" fill-rule="evenodd"><path d="M0 0h28v28H0z"></path><path d="M20.029 7.223A9.984 9.984 0 0124 15.203c0 5.522-4.477 10-10 10s-10-4.478-10-10a9.984 9.984 0 013.971-7.98M14 4v10" stroke="#458DE0" stroke-width="2" stroke-linecap="round"></path></g></svg><svg height="32" width="32" viewBox="-4 -4 32 32" id="message_outline_24" x="140" y="144" xmlns="http://www.w3.org/2000/svg"><g fill="none" fill-rule="evenodd"><path d="M0 0h24v24H0z"></path><path d="M7.713 18.202a.9.9 0 011-.259A9.363 9.363 0 0012 18.53c4.502 0 8.1-3.085 8.1-6.815S16.502 4.901 12 4.901s-8.1 3.084-8.1 6.814c0 1.283.423 2.515 1.214 3.586a.9.9 0 01.176.538c-.003.893-.376 2.179-1.114 3.915 1.654-.184 2.82-.71 3.537-1.551zm-4.324 3.413a1.272 1.272 0 01-1.203-1.807c.77-1.706 1.197-2.964 1.286-3.712-.891-1.312-1.372-2.815-1.372-4.382C2.1 6.924 6.56 3.1 12 3.1s9.9 3.823 9.9 8.614-4.46 8.615-9.9 8.615c-1.157 0-2.287-.173-3.353-.506-1.21 1.116-2.975 1.703-5.258 1.792z" fill="#3f8ae0" fill-rule="nonzero"></path></g></svg><svg width="36" height="36" viewBox="-4 -4 36 36" id="message_outline_28" y="108" xmlns="http://www.w3.org/2000/svg"><g fill="none" fill-rule="evenodd"><path d="M0 0h28v28H0z"></path><path d="M14 3.5c6.32 0 11.5 4.44 11.5 10s-5.18 10-11.5 10c-1.355 0-2.678-.204-3.924-.597-1.402 1.306-3.458 1.994-6.124 2.098a1.434 1.434 0 01-1.363-2.023c.911-2.015 1.413-3.498 1.514-4.379C3.062 17.073 2.5 15.323 2.5 13.5c0-5.56 5.18-10 11.5-10zm0 2c-5.278 0-9.5 3.619-9.5 8 0 1.508.497 2.955 1.426 4.213a1 1 0 01.196.598c-.004 1.047-.45 2.567-1.33 4.627 1.987-.208 3.388-.831 4.245-1.837a1 1 0 011.111-.287c1.202.45 2.506.686 3.852.686 5.278 0 9.5-3.619 9.5-8s-4.222-8-9.5-8z" fill="#3f8ae0" fill-rule="nonzero"></path></g></svg><svg width="36" height="36" viewBox="-4 -4 36 36" id="money_transfer_outline_28" x="36" y="108" xmlns="http://www.w3.org/2000/svg"><g fill="none" fill-rule="evenodd"><path d="M0 0h28v28H0z"></path><path d="M20.872 4c1.783 0 2.43.186 3.082.534.652.349 1.163.86 1.512 1.512.348.652.534 1.299.534 3.082v9.026l-.001.091v-3.228l-.006.1A1 1 0 0124 15v-3H4v5.436c0 .892.093 1.215.267 1.54.174.327.43.583.756.757.301.16.6.252 1.345.265l.196.002h16.022l-2.293-2.293a1 1 0 011.414-1.414l4 4a1 1 0 010 1.414l-4 4a1 1 0 01-1.414-1.414l2.298-2.299c-.135.004-.28.006-.437.006H7.128c-1.783 0-2.43-.186-3.082-.534a3.635 3.635 0 01-1.512-1.512C2.186 19.302 2 18.655 2 16.872V9.128c0-1.783.186-2.43.534-3.082a3.635 3.635 0 011.512-1.512C4.698 4.186 5.345 4 7.128 4h13.744zm.564 2H6.564c-.892 0-1.215.093-1.54.267a1.81 1.81 0 00-.757.756c-.16.301-.252.6-.265 1.345L4 8.564V10h20V8.564c0-.892-.093-1.215-.267-1.54a1.817 1.817 0 00-.756-.757c-.326-.174-.65-.267-1.54-.267z" fill="#3f8ae0" fill-rule="nonzero"></path></g></svg><svg width="36" height="36" viewBox="-4 -4 36 36" id="music_outline_28" x="72" y="108" xmlns="http://www.w3.org/2000/svg"><g fill="none" fill-rule="evenodd"><path opacity=".4" d="M0 0h28v28H0z"></path><path d="M22.03 2.895c1.1.333 1.77 1.254 1.77 2.664v6.256h-.046l.046.025v4.017l-.001.043c0 3.543-1.17 5.494-3.892 5.987-2.009.364-4.14-1.193-3.898-3.481.254-2.412 2.147-3.37 5.991-4.074V8.198l-10.8 2.194-.2.045v6.845c0 .232 0 .296-.011.368-.001.074-.002.566.001 1.673.01 3.078-.855 4.649-2.672 5.624-2.185 1.172-5.017.106-5.313-2.58-.292-2.653 2.41-4.478 6.183-4.573-.002-.966 0-1.244.01-1.34l.002-.016V7.282c.008-1.492 1.326-2.628 3.249-2.998 4.015-.871 7.198-1.342 7.588-1.418.704-.14 1.334-.17 1.993.03zM9.189 19.594c-2.825.08-4.541 1.24-4.394 2.575.142 1.291 1.52 1.81 2.672 1.192 1.164-.625 1.69-1.527 1.722-3.767zm12.808-3.43c-2.818.548-4.07 1.222-4.198 2.43-.104.979.867 1.688 1.787 1.522 1.673-.303 2.367-1.38 2.41-3.951zM20.385 4.633c-.372.073-3.569.546-7.575 1.416-1.19.229-1.807.76-1.81 1.244v.168l-.001.061v1.072L22 6.353V5.56c0-.623-.158-.84-.49-.94-.303-.092-.689-.073-1.125.013z" fill="#3f8ae0" fill-rule="nonzero"></path></g></svg><svg height="30" width="30" viewBox="-4 -4 30 30" id="notify" x="180" y="62" xmlns="http://www.w3.org/2000/svg"><g fill="none" fill-rule="evenodd"><path d="M-3-3h28v28H-3z" opacity=".04"></path><path d="M16.995 10.907L17 9.08C17 5.36 14.389 2.5 11.005 2.5 7.618 2.5 5 5.362 5 9.079v1.828c0 .928-.384 1.617-1.212 2.592a44.99 44.99 0 01-.28.328c-.76.88-1.008 1.298-1.008 1.761 0 .226.016.347.068.457.124.264.488.455 1.432.455h14c.914 0 1.286-.192 1.423-.46.059-.117.077-.241.077-.452 0-.463-.248-.88-1.009-1.76l-.282-.328c-.828-.976-1.214-1.665-1.214-2.593zM15.4 18.5C14.731 20.764 13.213 22 11 22s-3.731-1.236-4.4-3.5H4c-1.665 0-2.758-.574-3.242-1.604C.548 16.45.5 16.087.5 15.588c0-1.113.425-1.83 1.493-3.068.139-.16.203-.235.27-.314.539-.635.737-.99.737-1.299V9.08C3 4.296 6.472.5 11.005.5 15.535.5 19 4.294 19 9.081l-.005 1.827c0 .307.2.663.739 1.297.067.08.13.154.27.314 1.07 1.239 1.496 1.955 1.496 3.07 0 .5-.057.89-.294 1.357C20.7 17.94 19.618 18.5 18 18.5zm-2.12 0H8.72C9.171 19.543 9.898 20 11 20s1.829-.457 2.28-1.5z" fill="#3f8ae0" fill-rule="nonzero"></path></g></svg><svg height="36" width="36" viewBox="-4 -4 36 36" id="orders_outline_28" x="108" y="108" xmlns="http://www.w3.org/2000/svg"><g fill="none"><path d="M0 0h28v28H0z" opacity=".216"></path><path d="M13.705 1.215l-.198.029-.122.024c-.28.06-.543.16-1.012.373l-8.58 3.9c-.528.24-.793.404-1.055.66-.26.253-.451.55-.574.89-.109.303-.153.577-.162 1.029L2 18.675c0 .579.04.888.164 1.233.123.34.315.638.574.89.262.257.527.421 1.054.66l8.77 3.985c.414.182.656.262.945.313.33.06.655.06.986 0 .29-.051.53-.13.945-.313l8.77-3.984c.527-.24.792-.404 1.054-.66.26-.253.451-.55.574-.89.124-.346.164-.655.164-1.234L25.998 8.12c-.01-.452-.053-.726-.162-1.028a2.337 2.337 0 00-.574-.89c-.262-.257-.527-.421-1.054-.66l-8.77-3.985c-.414-.182-.656-.262-.945-.313a2.745 2.745 0 00-.788-.029zM24 8.553l-.002 10.324c-.003.14-.01.22-.022.279l-.022.074a.339.339 0 01-.088.137l-.058.05-.071.046a3.256 3.256 0 01-.258.13L15 23.446V12.631l.241-.097zm-19.998 0l3.499 1.591L7.5 13a1 1 0 00.883.993L8.5 14a1 1 0 00.993-.883L9.5 13l.001-1.947 3.258 1.481c.079.036.159.068.24.097L13 23.447l-8.38-3.81c-.251-.113-.36-.17-.428-.22l-.058-.05a.339.339 0 01-.088-.137l-.022-.074-.012-.084A4.247 4.247 0 014 18.675zM19.5 5.598L22.584 7l-8.17 3.713a1 1 0 01-.713.044l-.115-.044L10.917 9.5zm-5.36-2.386l.092.02.108.035c.101.036.239.094.46.195l2.284 1.037L8.5 8.401 5.417 7l7.784-3.538c.309-.14.454-.199.567-.23l.092-.02a.752.752 0 01.28 0z" fill="#3f8ae0"></path></g></svg><svg width="36" height="36" viewBox="-4 -4 36 36" id="safari_outline_28" x="144" xmlns="http://www.w3.org/2000/svg"><g fill="none" fill-rule="evenodd"><path d="M0 0h28v28H0z"></path><path d="M13.833 2.333c6.351 0 11.5 5.149 11.5 11.5s-5.149 11.5-11.5 11.5-11.5-5.149-11.5-11.5 5.149-11.5 11.5-11.5zm0 2a9.5 9.5 0 100 19 9.5 9.5 0 000-19z" fill="#3f8ae0" fill-rule="nonzero"></path><path d="M11.963 12.086l-2.575 6.067a.35.35 0 00.459.46l6.066-2.575a.233.233 0 00.123-.124l2.574-6.066a.35.35 0 00-.458-.459l-6.066 2.574a.233.233 0 00-.123.123z" stroke="#3f8ae0" stroke-width="1.75"></path></g></svg><svg width="36" height="36" viewBox="-4 -4 36 36" id="search_outline_28" x="144" y="36" xmlns="http://www.w3.org/2000/svg"><g fill="none" fill-rule="evenodd"><path d="M0 0h28v28H0z"></path><path d="M13 4.5a8.5 8.5 0 016.676 13.762l4.531 4.53a1 1 0 01-1.414 1.415l-4.53-4.531A8.5 8.5 0 1113 4.5zm0 2a6.5 6.5 0 100 13 6.5 6.5 0 000-13z" fill="#3f8ae0" fill-rule="nonzero"></path></g></svg><svg width="32" height="32" viewBox="-4 -4 32 32" id="services_blue_24" x="180" xmlns="http://www.w3.org/2000/svg"><path fill="#528bcc" d="M14.5 21h5a1.5 1.5 0 001.5-1.5v-5a1.5 1.5 0 00-1.5-1.5h-5a1.5 1.5 0 00-1.5 1.5v5a1.5 1.5 0 001.5 1.5zM11 19.5v-5A1.5 1.5 0 009.5 13h-5A1.5 1.5 0 003 14.5v5A1.5 1.5 0 004.5 21h5a1.5 1.5 0 001.5-1.5zM4.5 11h5A1.5 1.5 0 0011 9.5v-5A1.5 1.5 0 009.5 3h-5A1.5 1.5 0 003 4.5v5A1.5 1.5 0 004.5 11zm7.6-2.6l3.5 3.5a1.5 1.5 0 002.1 0l3.5-3.5a1.5 1.5 0 000-2.1l-3.5-3.5a1.5 1.5 0 00-2.1 0l-3.5 3.5a1.5 1.5 0 000 2.1z"></path></svg><svg width="36" height="36" viewBox="-4 -4 36 36" id="services_outline_28" x="144" y="72" xmlns="http://www.w3.org/2000/svg"><g fill="none" fill-rule="evenodd"><path d="M0 0h28v28H0z"></path><path d="M9.116 15c1.065 0 1.623.108 2.205.419.54.289.971.72 1.26 1.26.311.582.419 1.14.419 2.205v2.232c0 1.065-.108 1.623-.419 2.205-.289.54-.72.971-1.26 1.26-.582.311-1.14.419-2.205.419H6.884c-1.065 0-1.623-.108-2.205-.419a3.048 3.048 0 01-1.26-1.26C3.108 22.739 3 22.18 3 21.116v-2.232c0-1.065.108-1.623.419-2.205.289-.54.72-.971 1.26-1.26.582-.311 1.14-.419 2.205-.419h2.232zm12 0c1.065 0 1.623.108 2.205.419.54.289.971.72 1.26 1.26.311.582.419 1.14.419 2.205v2.232c0 1.065-.108 1.623-.419 2.205-.289.54-.72.971-1.26 1.26-.582.311-1.14.419-2.205.419h-2.232c-1.065 0-1.623-.108-2.205-.419a3.048 3.048 0 01-1.26-1.26c-.311-.582-.419-1.14-.419-2.205v-2.232c0-1.065.108-1.623.419-2.205.289-.54.72-.971 1.26-1.26.582-.311 1.14-.419 2.205-.419h2.232zm-12 2H6.884c-.763 0-1.01.048-1.261.182a1.045 1.045 0 00-.44.44c-.135.253-.183.499-.183 1.262v2.232c0 .763.048 1.01.182 1.261.103.193.248.338.44.44.253.135.499.183 1.262.183h2.232c.763 0 1.01-.048 1.261-.182.193-.103.338-.248.44-.44.135-.253.183-.499.183-1.262v-2.232c0-.763-.048-1.01-.182-1.261a1.045 1.045 0 00-.44-.44c-.253-.135-.499-.183-1.262-.183zm12 0h-2.232c-.763 0-1.01.048-1.261.182a1.045 1.045 0 00-.44.44c-.135.253-.183.499-.183 1.262v2.232c0 .763.048 1.01.182 1.261.103.193.248.338.44.44.253.135.499.183 1.262.183h2.232c.763 0 1.01-.048 1.261-.182.193-.103.338-.248.44-.44.135-.253.183-.499.183-1.262v-2.232c0-.763-.048-1.01-.182-1.261a1.045 1.045 0 00-.44-.44c-.253-.135-.499-.183-1.262-.183zM20.89 2.413c.631.19 1.102.51 1.856 1.263l1.577 1.577c.754.754 1.072 1.225 1.263 1.856a3.044 3.044 0 010 1.782c-.19.631-.51 1.102-1.263 1.856l-1.577 1.577c-.754.754-1.225 1.072-1.856 1.263a3.044 3.044 0 01-1.782 0c-.631-.19-1.102-.51-1.856-1.263l-1.577-1.577c-.754-.754-1.072-1.225-1.263-1.856a3.044 3.044 0 010-1.782c.19-.631.51-1.102 1.263-1.856l1.577-1.577c.754-.754 1.225-1.072 1.856-1.263a3.044 3.044 0 011.782 0zM9.116 3c1.065 0 1.623.108 2.205.419.54.289.971.72 1.26 1.26.311.582.419 1.14.419 2.205v2.232c0 1.065-.108 1.623-.419 2.205-.289.54-.72.971-1.26 1.26-.582.311-1.14.419-2.205.419H6.884c-1.065 0-1.623-.108-2.205-.419a3.048 3.048 0 01-1.26-1.26C3.108 10.739 3 10.18 3 9.116V6.884c0-1.065.108-1.623.419-2.205.289-.54.72-.971 1.26-1.26C5.261 3.108 5.82 3 6.884 3h2.232zm10.573 1.327c-.274.082-.482.223-1.021.763L17.09 6.668c-.54.54-.68.747-.763 1.02a1.045 1.045 0 000 .623c.082.274.223.482.763 1.021l1.578 1.578c.54.54.747.68 1.02.763.21.064.415.064.623 0 .274-.082.482-.223 1.021-.763l1.578-1.578c.54-.54.68-.747.763-1.02a1.045 1.045 0 000-.623c-.082-.274-.223-.482-.763-1.021L21.332 5.09c-.54-.54-.747-.68-1.02-.763a1.045 1.045 0 00-.623 0zM9.116 5H6.884c-.763 0-1.01.048-1.261.182a1.045 1.045 0 00-.44.44c-.136.254-.183.5-.183 1.263v2.232c0 .763.048 1.01.182 1.261.103.193.248.338.44.44.253.135.499.183 1.262.183h2.232c.763 0 1.01-.048 1.261-.182.193-.103.338-.248.44-.44.135-.253.183-.499.183-1.262V6.884c0-.763-.048-1.01-.182-1.261a1.045 1.045 0 00-.44-.44C10.124 5.047 9.878 5 9.115 5z" fill="#3f8ae0" fill-rule="nonzero"></path></g></svg><svg width="36" height="36" viewBox="-4 -4 36 36" id="settings_outline_28" x="144" y="108" xmlns="http://www.w3.org/2000/svg"><g fill="none"><path d="M0 0h28v28H0z"></path><path d="M15.148 2.04c.428.07.832.233 1.195.523.595.476.878 1.076 1.097 1.952.056.224.153.486.275.74.278.117.55.249.815.393.262-.065.513-.15.714-.244 1.412-.658 2.597-.623 3.567.423.082.089.131.148.238.28l.629.776c.17.21.241.305.348.482.692 1.152.422 2.224-.452 3.386a4.112 4.112 0 00-.417.71c.078.283.143.57.195.86.222.178.46.334.668.441.804.41 1.325.821 1.655 1.508.202.42.27.85.24 1.282a3.48 3.48 0 01-.106.64l-.225.975c-.065.285-.099.41-.185.622a2.515 2.515 0 01-.778 1.047c-.598.473-1.246.614-2.148.63-.229.004-.502.04-.773.1a9.749 9.749 0 01-.563.704c.003.275.03.544.077.764.187.884.196 1.547-.13 2.236-.2.42-.491.744-.845.993a3.48 3.48 0 01-.565.32l-.899.44a3.48 3.48 0 01-.6.247c-.414.126-.85.156-1.303.054-.744-.167-1.261-.582-1.842-1.273a4.103 4.103 0 00-.591-.561 9.627 9.627 0 01-.878 0 4.22 4.22 0 00-.591.56c-.58.692-1.098 1.107-1.842 1.274a2.515 2.515 0 01-1.303-.054 3.48 3.48 0 01-.6-.248l-.899-.438a7.152 7.152 0 01-.185-.093c-1.312-.683-1.696-1.847-1.355-3.457.047-.22.074-.49.077-.764a9.535 9.535 0 01-.563-.705 4.066 4.066 0 00-.773-.099c-.902-.016-1.55-.157-2.148-.63a2.515 2.515 0 01-.778-1.047 3.48 3.48 0 01-.185-.622l-.225-.974a3.381 3.381 0 01-.109-.681 2.509 2.509 0 01.296-1.346c.339-.629.84-1.015 1.602-1.404a4.09 4.09 0 00.668-.441 9.64 9.64 0 01.195-.86 4.112 4.112 0 00-.417-.71c-.874-1.162-1.144-2.234-.452-3.386.107-.177.179-.273.348-.482l.63-.777c.106-.131.155-.19.237-.279.97-1.046 2.155-1.08 3.567-.423.201.093.452.18.714.244.265-.144.537-.276.815-.394.122-.253.219-.515.275-.74.219-.875.502-1.475 1.097-1.95a2.505 2.505 0 011.195-.523c.18-.03.3-.038.49-.04L14.5 2c.292 0 .422.005.648.04zM14.586 4H13.5c-.5 0-.75 0-1 1a6.347 6.347 0 01-.836 1.87 7.47 7.47 0 00-1.8.872 6.35 6.35 0 01-1.952-.525c-.934-.435-1.092-.24-1.406.148l-.63.777c-.314.389-.472.583.148 1.406.35.464.721 1.15.937 1.857a7.458 7.458 0 00-.429 1.894 6.345 6.345 0 01-1.643 1.245c-.918.468-.862.712-.75 1.199l.225.974c.113.487.169.731 1.2.75.57.01 1.323.135 2.003.39.345.575.765 1.1 1.247 1.56a6.35 6.35 0 01-.072 2.032c-.213 1.008.011 1.118.46 1.337l.9.439c.449.219.674.328 1.337-.46a6.343 6.343 0 011.59-1.327 7.571 7.571 0 001.942 0 6.343 6.343 0 011.59 1.326c.663.79.888.68 1.337.46l.9-.438c.449-.219.673-.329.46-1.337a6.35 6.35 0 01-.072-2.031 7.533 7.533 0 001.247-1.56 6.348 6.348 0 012.003-.391c1.031-.019 1.087-.263 1.2-.75l.225-.974c.112-.487.168-.73-.75-1.2a6.345 6.345 0 01-1.643-1.244 7.458 7.458 0 00-.43-1.894 6.342 6.342 0 01.938-1.857c.62-.823.462-1.017.148-1.406l-.63-.777c-.314-.389-.472-.583-1.406-.148a6.35 6.35 0 01-1.952.525 7.47 7.47 0 00-1.8-.871A6.347 6.347 0 0115.5 5c-.235-.941-.47-.997-.914-1zM14 9.5a4.5 4.5 0 110 9 4.5 4.5 0 010-9zm0 2a2.5 2.5 0 100 5 2.5 2.5 0 000-5z" fill="#3f8ae0"></path></g></svg><svg width="36" height="36" viewBox="-4 -4 36 36" id="user_outline_28" y="144" xmlns="http://www.w3.org/2000/svg"><g fill="none" fill-rule="evenodd"><path d="M0 0h28v28H0z"></path><path d="M17.5 8.5C17.5 6.566 15.934 5 14 5a3.499 3.499 0 00-3.5 3.5c0 1.934 1.566 3.5 3.5 3.5s3.5-1.566 3.5-3.5zm2 0c0 3.039-2.461 5.5-5.5 5.5a5.499 5.499 0 01-5.5-5.5C8.5 5.461 10.961 3 14 3s5.5 2.461 5.5 5.5zM7 20.643c0 .943-.08.857.456.857h13.588c.536 0 .456.086.456-.857 0-2.288-3.304-3.643-7.25-3.643S7 18.355 7 20.643zm-2 0C5 16.763 9.299 15 14.25 15s9.25 1.763 9.25 5.643c0 2.016-.781 2.857-2.456 2.857H7.456C5.78 23.5 5 22.66 5 20.643z" fill="#3f8ae0" fill-rule="nonzero"></path></g></svg><svg width="36" height="36" viewBox="-4 -4 36 36" id="users_outline_28" x="36" y="144" xmlns="http://www.w3.org/2000/svg"><g fill="none" fill-rule="evenodd"><path d="M0 0h28v28H0z"></path><path d="M9 15c3.997 0 7.5 1.542 7.5 4.929 0 1.774-.69 2.571-2.147 2.571H3.647c-1.458 0-2.147-.797-2.147-2.571C1.5 16.542 5.003 15 9 15zm10.5 0c3.997 0 7.5 1.542 7.5 4.929 0 1.774-.69 2.571-2.147 2.571H19a1 1 0 010-2h5.913a.83.83 0 01.042.002l.013.001.002-.015c.01-.081.024-.22.029-.427l.001-.132C25 18.095 22.513 17 19.5 17c-.428 0-.898.03-1.37.09a1 1 0 11-.256-1.983A12.87 12.87 0 0119.5 15zM3.531 20.503l-.014.002-.013.007-.001.01.037.036-.009-.055zm10.937 0l-.008.055.037-.036c.003-.008-.001-.014-.014-.017l-.015-.002zm10.5 0l-.008.055.037-.036c.003-.008-.001-.014-.014-.017l-.015-.002zM9 17c-3.013 0-5.5 1.095-5.5 2.929 0 .28.017.462.03.56l.001.014.014-.001.019-.001h10.891l.013.002.002-.015c.013-.097.03-.28.03-.56C14.5 18.096 12.013 17 9 17zM19.5 5a4.25 4.25 0 014.25 4.25 4.25 4.25 0 01-4.25 4.25 4.25 4.25 0 01-4.25-4.25A4.25 4.25 0 0119.5 5zM9 5a4.25 4.25 0 014.25 4.25A4.25 4.25 0 019 13.5a4.25 4.25 0 01-4.25-4.25A4.25 4.25 0 019 5zm10.5 2a2.25 2.25 0 100 4.5 2.25 2.25 0 100-4.5zM9 7a2.25 2.25 0 100 4.5A2.25 2.25 0 109 7z" fill="#3f8ae0" fill-rule="nonzero"></path></g></svg><svg width="36" height="36" viewBox="-4 -4 36 36" id="video_outline_28" x="72" y="144" xmlns="http://www.w3.org/2000/svg"><g fill="none"><path d="M0 0h28v28H0z"></path><path d="M14 2c6.627 0 12 5.373 12 12s-5.373 12-12 12S2 20.627 2 14 7.373 2 14 2zm0 2C8.477 4 4 8.477 4 14s4.477 10 10 10 10-4.477 10-10S19.523 4 14 4zm-1.545 5.121c.342 0 .678.09.975.26l5.079 2.925a1.955 1.955 0 010 3.388l-5.079 2.924a1.955 1.955 0 01-2.93-1.694v-5.848c0-1.08.875-1.955 1.955-1.955zm.045 2.033v5.692L17.443 14 12.5 11.154z" fill="#3f8ae0"></path></g></svg></svg>